<mxfile host="app.diagrams.net" modified="2024-02-28T18:42:26.967Z" agent="Mozilla/5.0 (Windows NT 10.0; Win64; x64) AppleWebKit/537.36 (KHTML, like Gecko) Chrome/121.0.0.0 Safari/537.36" version="23.1.7" etag="ELd1wxzmAQ52P1Z51dRL" type="github">
  <diagram name="Page-1" id="sEF0sZVqAtdN_ilRNxeb">
    <mxGraphModel>
      <root>
        <mxCell id="0" />
        <mxCell id="1" parent="0" />
      </root>
    </mxGraphModel>
  </diagram>
</mxfile>
